<svg width="1600" height="1200" viewBox="0 0 1600 1200" fill="none" xmlns="http://www.w3.org/2000/svg">
  <defs>
    <linearGradient id="bg" x1="120" y1="80" x2="1480" y2="1120" gradientUnits="userSpaceOnUse">
      <stop stop-color="#081018"/>
      <stop offset="1" stop-color="#13222D"/>
    </linearGradient>
    <linearGradient id="hero" x1="0" y1="0" x2="1" y2="1">
      <stop stop-color="#1A8EAF"/>
      <stop offset="1" stop-color="#0E6C88"/>
    </linearGradient>
    <linearGradient id="panelGlow" x1="0" y1="0" x2="1" y2="1">
      <stop stop-color="#182530"/>
      <stop offset="1" stop-color="#101820"/>
    </linearGradient>
    <filter id="shadow" x="-20%" y="-20%" width="140%" height="140%">
      <feDropShadow dx="0" dy="18" stdDeviation="18" flood-color="#000000" flood-opacity="0.22"/>
    </filter>
    <style>
      .title { font: 700 40px 'Segoe UI', 'Malgun Gothic', sans-serif; fill: #EEF5F7; }
      .subtitle { font: 500 18px 'Segoe UI', 'Malgun Gothic', sans-serif; fill: #8FA7B5; }
      .section { font: 700 22px 'Segoe UI', 'Malgun Gothic', sans-serif; fill: #EEF5F7; }
      .label { font: 600 13px 'Segoe UI', 'Malgun Gothic', sans-serif; fill: #FFC96B; letter-spacing: 1.6px; }
      .body { font: 500 14px 'Segoe UI', 'Malgun Gothic', sans-serif; fill: #8FA7B5; }
      .metricLabel { font: 500 12px 'Segoe UI', 'Malgun Gothic', sans-serif; fill: #8FA7B5; }
      .metricValue { font: 700 24px 'Segoe UI', 'Malgun Gothic', sans-serif; fill: #EEF5F7; }
      .small { font: 500 12px 'Segoe UI', 'Malgun Gothic', sans-serif; fill: #6B808D; }
      .chip { font: 600 12px 'Segoe UI', 'Malgun Gothic', sans-serif; fill: #FFC96B; }
      .cardTitle { font: 700 18px 'Segoe UI', 'Malgun Gothic', sans-serif; fill: #EEF5F7; }
      .nav { font: 600 14px 'Segoe UI', 'Malgun Gothic', sans-serif; fill: #EEF5F7; }
      .button { font: 700 14px 'Segoe UI', 'Malgun Gothic', sans-serif; fill: #1D1200; }
      .buttonSecondary { font: 700 14px 'Segoe UI', 'Malgun Gothic', sans-serif; fill: #EEF5F7; }
    </style>
  </defs>

  <rect width="1600" height="1200" fill="url(#bg)"/>
  <circle cx="1430" cy="180" r="180" fill="#1A8EAF" fill-opacity="0.08"/>
  <circle cx="220" cy="1080" r="240" fill="#F0A83A" fill-opacity="0.07"/>

  <text x="72" y="78" class="title">AccountBook Design Direction</text>
  <text x="72" y="110" class="subtitle">Desktop app + web dashboard + mobile web concept board based on the current dark finance UI</text>

  <rect x="72" y="146" width="1456" height="74" rx="28" fill="#111820" stroke="#24333E"/>
  <text x="104" y="187" class="label">CORE TOKENS</text>
  <rect x="272" y="166" width="110" height="34" rx="17" fill="#0A0F14" stroke="#24333E"/><text x="300" y="188" class="chip">BG</text>
  <rect x="396" y="166" width="110" height="34" rx="17" fill="#1587A8"/><text x="427" y="188" class="chip">HEADER</text>
  <rect x="520" y="166" width="110" height="34" rx="17" fill="#151F28" stroke="#24333E"/><text x="552" y="188" class="chip">PANEL</text>
  <rect x="644" y="166" width="110" height="34" rx="17" fill="#F0A83A"/><text x="675" y="188" class="chip" fill="#1D1200">ACCENT</text>
  <rect x="768" y="166" width="110" height="34" rx="17" fill="#52D0B2"/><text x="799" y="188" class="chip" fill="#0A0F14">NET</text>
  <rect x="892" y="166" width="110" height="34" rx="17" fill="#F4A261"/><text x="922" y="188" class="chip" fill="#0A0F14">EXPENSE</text>
  <text x="1040" y="188" class="body">Calm teal structure, dark layered cards, warm amber action color, compact but readable finance surfaces</text>

  <g filter="url(#shadow)">
    <rect x="72" y="270" width="980" height="720" rx="34" fill="#0C131A" stroke="#24333E"/>
  </g>
  <text x="96" y="252" class="section">Desktop App</text>

  <rect x="96" y="294" width="932" height="58" rx="24" fill="url(#hero)"/>
  <rect x="122" y="307" width="30" height="30" rx="10" fill="#0E6C88"/>
  <text x="166" y="327" class="cardTitle">복식부기 가계부</text>
  <text x="166" y="344" class="small">2026년 4월 요약</text>
  <rect x="364" y="305" width="360" height="36" rx="18" fill="#0E6C88"/><text x="390" y="327" class="small" fill="#D7F6FF">거래 요약과 최근 흐름을 빠르게 확인</text>
  <rect x="770" y="305" width="92" height="36" rx="16" fill="#0E6C88"/><text x="794" y="327" class="small" fill="#EEF5F7">총 7건</text>
  <rect x="874" y="305" width="128" height="36" rx="16" fill="#F0A83A"/><text x="910" y="327" class="button">CSV 내보내기</text>

  <rect x="96" y="372" width="170" height="592" rx="28" fill="#0D141B" stroke="#24333E"/>
  <rect x="114" y="392" width="134" height="90" rx="18" fill="#151F28" stroke="#24333E"/>
  <text x="130" y="418" class="label">SECTION</text>
  <text x="130" y="446" class="cardTitle">거래 입력</text>
  <text x="130" y="468" class="small">다크 UI로 입력 몰입감 강화</text>

  <rect x="114" y="506" width="134" height="62" rx="16" fill="#1A2632"/>
  <text x="132" y="530" class="nav">거래 입력</text>
  <text x="132" y="548" class="small">복식부기 워크스페이스</text>

  <rect x="114" y="578" width="134" height="62" rx="16" fill="#151F28" stroke="#24333E"/>
  <text x="132" y="602" class="nav">분석</text>
  <text x="132" y="620" class="small">순자산과 지출 흐름</text>

  <rect x="114" y="650" width="134" height="62" rx="16" fill="#151F28" stroke="#24333E"/>
  <text x="132" y="674" class="nav">설정</text>
  <text x="132" y="692" class="small">테마와 계정 관리</text>

  <rect x="114" y="776" width="134" height="168" rx="18" fill="#151F28" stroke="#24333E"/>
  <text x="130" y="804" class="label">QUICK GUIDE</text>
  <text x="130" y="832" class="body">왼쪽은 자금이</text>
  <text x="130" y="854" class="body">나가는 계정, 오른쪽은</text>
  <text x="130" y="876" class="body">들어오는 계정입니다.</text>

  <rect x="288" y="372" width="740" height="592" rx="28" fill="#111820" stroke="#24333E"/>
  <text x="324" y="416" class="label">DAILY LEDGER</text>
  <text x="324" y="454" class="title" font-size="34">후잉 감성의 거래입력 대시보드</text>
  <text x="324" y="482" class="body">짙은 배경, 청록 헤더, 카드형 정보 요약으로 전체 구조를 정돈한 데스크톱 앱 화면</text>
  <rect x="868" y="400" width="124" height="38" rx="18" fill="#21313E" stroke="#24333E"/>
  <text x="900" y="424" class="chip">2026.04</text>

  <rect x="324" y="522" width="312" height="402" rx="24" fill="#151F28" stroke="#24333E"/>
  <text x="348" y="558" class="cardTitle">거래 입력</text>
  <text x="348" y="582" class="small">날짜, 계정 흐름, 금액, 메모를 빠르게 입력</text>
  <g>
    <rect x="348" y="612" width="264" height="42" rx="14" fill="#F3F7FA"/><text x="366" y="638" class="small" fill="#16303C">거래일</text>
    <rect x="348" y="668" width="264" height="42" rx="14" fill="#0D151C" stroke="#24333E"/><text x="366" y="694" class="small">거래 이름</text>
    <rect x="348" y="724" width="126" height="42" rx="14" fill="#F3F7FA"/><text x="366" y="750" class="small" fill="#16303C">왼쪽 계정</text>
    <rect x="486" y="724" width="126" height="42" rx="14" fill="#F3F7FA"/><text x="504" y="750" class="small" fill="#16303C">오른쪽 계정</text>
    <rect x="348" y="780" width="264" height="42" rx="14" fill="#0D151C" stroke="#24333E"/><text x="366" y="806" class="small">금액</text>
    <rect x="348" y="836" width="264" height="54" rx="14" fill="#0D151C" stroke="#24333E"/><text x="366" y="862" class="small">메모</text>
    <rect x="348" y="900" width="264" height="44" rx="16" fill="#F0A83A"/><text x="442" y="927" class="button">거래 기록</text>
  </g>

  <rect x="658" y="522" width="334" height="164" rx="24" fill="#151F28" stroke="#24333E"/>
  <text x="682" y="558" class="cardTitle">입력 미리보기</text>
  <rect x="682" y="582" width="128" height="78" rx="18" fill="#0D151C" stroke="#24333E"/>
  <rect x="824" y="582" width="144" height="78" rx="18" fill="#0D151C" stroke="#24333E"/>
  <text x="698" y="606" class="metricLabel">왼쪽 계정</text>
  <text x="698" y="636" class="metricValue">입출금통장</text>
  <text x="840" y="606" class="metricLabel">오른쪽 계정</text>
  <text x="840" y="636" class="metricValue">생활비</text>

  <rect x="658" y="704" width="334" height="138" rx="24" fill="#151F28" stroke="#24333E"/>
  <text x="682" y="740" class="cardTitle">계정 요약</text>
  <rect x="682" y="760" width="286" height="2" fill="#24333E"/>
  <text x="682" y="790" class="body">현금</text><text x="920" y="790" class="body">+180,000</text>
  <text x="682" y="820" class="body">카드부채</text><text x="920" y="820" class="body">-410,000</text>

  <rect x="658" y="860" width="158" height="64" rx="20" fill="#151F28" stroke="#24333E"/>
  <text x="682" y="888" class="cardTitle">입력 팁</text>
  <text x="682" y="908" class="small">반복 거래명은 짧게</text>
  <rect x="834" y="860" width="158" height="64" rx="20" fill="#151F28" stroke="#24333E"/>
  <text x="858" y="888" class="cardTitle">추천 흐름</text>
  <text x="858" y="908" class="small">수익 계정 → 통장</text>

  <text x="1096" y="252" class="section">Web Dashboard</text>
  <g filter="url(#shadow)">
    <rect x="1080" y="270" width="448" height="470" rx="34" fill="#0C131A" stroke="#24333E"/>
  </g>
  <rect x="1104" y="294" width="400" height="54" rx="22" fill="#111820" stroke="#24333E"/>
  <text x="1128" y="326" class="cardTitle">AccountBook</text>
  <rect x="1260" y="306" width="92" height="28" rx="14" fill="#151F28" stroke="#24333E"/>
  <rect x="1362" y="306" width="118" height="28" rx="14" fill="#F0A83A"/>
  <text x="1390" y="324" class="button">Add Transaction</text>

  <text x="1104" y="390" class="label">WEB HOME</text>
  <text x="1104" y="430" class="section">Monthly Ledger Overview</text>
  <text x="1104" y="456" class="body">브라우저 친화적인 대시보드 구조. 요약, 최근 거래, 차트, 빠른 입력을 한 화면에 배치</text>

  <rect x="1104" y="488" width="186" height="86" rx="22" fill="#151F28" stroke="#24333E"/>
  <rect x="1304" y="488" width="176" height="86" rx="22" fill="#151F28" stroke="#24333E"/>
  <text x="1124" y="518" class="metricLabel">Net Asset</text>
  <text x="1124" y="550" class="metricValue">12.4M</text>
  <text x="1324" y="518" class="metricLabel">Expense</text>
  <text x="1324" y="550" class="metricValue">1.1M</text>

  <rect x="1104" y="592" width="248" height="122" rx="24" fill="#151F28" stroke="#24333E"/>
  <text x="1126" y="624" class="cardTitle">Transaction Composer</text>
  <rect x="1126" y="642" width="204" height="34" rx="12" fill="#0D151C" stroke="#24333E"/>
  <rect x="1126" y="684" width="96" height="34" rx="12" fill="#F3F7FA"/>
  <rect x="1234" y="684" width="96" height="34" rx="12" fill="#F3F7FA"/>

  <rect x="1368" y="592" width="112" height="122" rx="24" fill="#151F28" stroke="#24333E"/>
  <text x="1388" y="624" class="cardTitle">Recent</text>
  <text x="1388" y="652" class="small">급여 입금</text>
  <text x="1388" y="676" class="small">생활비 지출</text>
  <text x="1388" y="700" class="small">카드 결제</text>

  <g filter="url(#shadow)">
    <rect x="1080" y="768" width="280" height="356" rx="34" fill="#0C131A" stroke="#24333E"/>
  </g>
  <text x="1104" y="750" class="section">Mobile Web</text>
  <rect x="1102" y="792" width="236" height="44" rx="20" fill="#111820" stroke="#24333E"/>
  <text x="1122" y="820" class="cardTitle">AccountBook</text>
  <rect x="1110" y="856" width="220" height="86" rx="22" fill="url(#hero)"/>
  <text x="1128" y="892" class="cardTitle">빠른 거래 입력</text>
  <text x="1128" y="914" class="small" fill="#D7F6FF">모바일에서는 단일 컬럼과 큰 CTA</text>
  <rect x="1110" y="962" width="104" height="78" rx="20" fill="#151F28" stroke="#24333E"/>
  <rect x="1226" y="962" width="104" height="78" rx="20" fill="#151F28" stroke="#24333E"/>
  <text x="1128" y="990" class="metricLabel">Net</text>
  <text x="1128" y="1022" class="metricValue">12.4M</text>
  <text x="1244" y="990" class="metricLabel">Expense</text>
  <text x="1244" y="1022" class="metricValue">1.1M</text>
  <rect x="1110" y="1060" width="220" height="42" rx="18" fill="#F0A83A"/>
  <text x="1180" y="1086" class="button">새 거래 추가</text>

  <g filter="url(#shadow)">
    <rect x="1384" y="768" width="144" height="356" rx="34" fill="#0C131A" stroke="#24333E"/>
  </g>
  <text x="1404" y="798" class="label">STACK</text>
  <rect x="1402" y="820" width="108" height="58" rx="18" fill="#151F28" stroke="#24333E"/>
  <rect x="1402" y="890" width="108" height="84" rx="18" fill="#151F28" stroke="#24333E"/>
  <rect x="1402" y="986" width="108" height="54" rx="18" fill="#151F28" stroke="#24333E"/>
  <rect x="1402" y="1052" width="108" height="48" rx="18" fill="#F0A83A"/>

  <text x="72" y="1062" class="section">What This Board Covers</text>
  <text x="72" y="1094" class="body">Desktop app keeps the current WPF shell: header, sidebar, input-first workflow, analysis charts, settings cards.</text>
  <text x="72" y="1120" class="body">Web expands the same design system into a browser-native dashboard with responsive tablet and mobile layouts.</text>
  <text x="72" y="1146" class="body">Best next step: use this image as a visual brief, then create matching Figma frames for Desktop / Web / Mobile.</text>
</svg>
